<svg width="21" height="12" fill="none" xmlns="http://www.w3.org/2000/svg"><path fill-rule="evenodd" clip-rule="evenodd" d="M16.481 1.866a14.673 14.673 0 014.095 3.742l-.054.087c-.04.064-.077.125-.118.178-1.362 1.841-2.983 3.425-4.966 4.598-2.25 1.336-4.673 1.875-7.268 1.302-3.586-.788-6.13-3.014-8.13-5.96-.068-.094-.043-.325.035-.428 1.828-2.372 4.12-4.118 7.043-4.94 3.32-.934 6.45-.369 9.363 1.421zm-6.233-.146c-2.37 0-4.31 1.91-4.32 4.264a4.29 4.29 0 004.285 4.29c2.389.017 4.337-1.91 4.337-4.281 0-2.346-1.931-4.273-4.302-4.273zm.388 1.781c-.19 1.601.88 2.278 2.13 2.072a2.516 2.516 0 01-1.337 2.706 2.592 2.592 0 01-3.052-.488c-.784-.822-.957-2.02-.414-3.006.535-.967 1.647-1.506 2.673-1.284z" fill="#8890A1" fill-opacity=".5"/></svg>